<?xml version="1.0" encoding="utf-8"?>
<!-- Generator: Adobe Illustrator 26.1.0, SVG Export Plug-In . SVG Version: 6.00 Build 0)  -->
<svg version="1.1" id="Layer_1" xmlns="http://www.w3.org/2000/svg" xmlns:xlink="http://www.w3.org/1999/xlink" x="0px" y="0px"
	 viewBox="0 0 354 330" style="enable-background:new 0 0 354 330;" xml:space="preserve">
<style type="text/css">
	.st0{fill:url(#SVGID_1_);}
</style>
<linearGradient id="SVGID_1_" gradientUnits="userSpaceOnUse" x1="52.7436" y1="161.2051" x2="302.7436" y2="161.2051">
	<stop  offset="0" style="stop-color:#FF0000"/>
	<stop  offset="0.13" style="stop-color:#FF0404"/>
	<stop  offset="0.2562" style="stop-color:#FF1010"/>
	<stop  offset="0.3808" style="stop-color:#FF2323"/>
	<stop  offset="0.5045" style="stop-color:#FF3F3F"/>
	<stop  offset="0.6276" style="stop-color:#FF6262"/>
	<stop  offset="0.7502" style="stop-color:#FF8D8D"/>
	<stop  offset="0.8725" style="stop-color:#FFC1C1"/>
	<stop  offset="0.9917" style="stop-color:#FFFBFB"/>
	<stop  offset="1" style="stop-color:#FFFFFF"/>
</linearGradient>
<circle class="st0" cx="177.74" cy="161.21" r="125"/>
<g>
	<g>
		<g transform="translate(0.000000,512.000000) scale(0.100000,-0.100000)">
			<path d="M1510.68,4319.58c-82.72-22.37-138.8-106.14-125.31-187.79c13.84-83.43,83.43-144.13,165.42-143.78
				c49.7,0.36,84.14,14.55,119.27,49.7c35.15,35.15,49.35,69.57,49.7,119.27c0,45.08-17.04,86.61-49.35,118.56
				C1627.12,4318.14,1567.13,4334.84,1510.68,4319.58z"/>
			<path d="M2174.17,4105.52c-10.66-3.55-203.06-79.52-427.42-168.62c-224.72-89.1-415.71-164-425.29-165.78
				c-33.02-7.09-75.26,9.24-96.92,37.28c-5.33,6.75-14.2,26.62-19.88,43.31c-17.75,53.24-34.79,74.19-72.43,88.76
				c-19.88,7.46-58.23,5.67-78.1-3.91c-35.86-17.4-56.44-51.82-56.44-94.07c0-25.57,1.42-30.88,37.99-125.67
				c21.29-54.66,41.53-105.43,45.44-113.25c9.24-17.4,35.5-43.31,53.95-52.9c44.02-22.37,62.83-22.37,178.2-1.07
				c100.49,18.8,119.65,19.17,149.47,4.26c22.71-11.37,45.08-36.57,52.53-58.57c7.8-22.37,11.37-53.95,6.38-53.95
				c-7.46,0-246.36-129.58-254.89-138.09c-29.46-29.46-10.29-79.88,31.59-84.48c15.62-1.78,17.4-1.05,94.43,40.48l29.46,16.33
				l-17.75-33.37c-9.95-18.46-27.69-51.48-39.41-73.85c-29.82-56.08-31.95-66.74-18.11-92.3c13.49-25.91,57.52-28.75,78.81-5.33
				c3.2,3.91,30.17,52.19,59.64,107.92c29.82,55.73,55.39,104.01,57.52,107.56c1.78,3.55,3.91,6.04,4.62,5.33
				c0.71-0.35,23.78-154.42,51.48-341.86c31.59-211.23,53.24-347.9,57.52-359.26c24.13-64.97,96.92-99.05,156.2-72.77
				c30.53,13.49,54.66,41.9,65.32,77.39c3.55,11.71,7.46,103.3,15.62,341.5c11.36,348.24,11.36,350.03,30.88,383.39
				c12.78,21.66,38.7,46.5,60.35,58.57c14.91,7.82,82.36,23.42,362.45,83.77c372.03,80.23,367.06,78.81,397.23,108.98
				c55.03,55.39,44.02,137.38-23.42,171.82c-29.48,14.91-29.11,14.91-343.99-3.55c-164.71-9.95-303.51-17.75-308.84-17.75
				c-7.8,0-10.66,2.84-15.26,13.84c-7.09,16.69-20.24,25.91-40.11,28.75c-14.55,1.78-13.49,2.49,120.34,78.1
				c86.27,48.64,141.29,82.01,152.29,92.3c34.79,31.95,47.93,83.07,30.17,119.27c-8.87,18.82-30.9,39.04-52.19,48.28
				C2240.54,4112.61,2199.01,4114.03,2174.17,4105.52z"/>
		</g>
	</g>
</g>
</svg>
